<svg height="512pt" viewBox="0 -31 512 512" width="512pt" xmlns="http://www.w3.org/2000/svg"><path d="m241 180v195h-210v-195h60l30 30h30l30-30zm0 0" fill="#fed2a4"/><path d="m241 180v195h-105v-165h15l30-30zm0 0" fill="#ffbd86"/><path d="m91 180h90v60h-90zm0 0" fill="#ff9f00"/><path d="m136 180h45v60h-45zm0 0" fill="#ff7816"/><path d="m481 180v195h-210v-195h60l30 30h30l30-30zm0 0" fill="#fed2a4"/><path d="m481 180v195h-105v-165h15l30-30zm0 0" fill="#ffbd86"/><path d="m331 180h90v60h-90zm0 0" fill="#ff9f00"/><path d="m376 180h45v60h-45zm0 0" fill="#ff7816"/><path d="m361 0v180h-210v-180h60l30 30h30l30-30zm0 0" fill="#fed2a4"/><path d="m361 0v180h-105v-150h15l30-30zm0 0" fill="#ffbd86"/><path d="m211 0h90v60h-90zm0 0" fill="#ff9f00"/><path d="m256 0h45v60h-45zm0 0" fill="#ff7816"/><path d="m61 375h30v60h-30zm0 0" fill="#5a5a5a"/><path d="m181 375h30v60h-30zm0 0" fill="#5a5a5a"/><path d="m301 375h30v60h-30zm0 0" fill="#444"/><path d="m421 375h30v60h-30zm0 0" fill="#444"/><path d="m0 360h512v30h-512zm0 0" fill="#6e6e6e"/><path d="m256 360h256v30h-256zm0 0" fill="#5a5a5a"/><path d="m0 420h512v30h-512zm0 0" fill="#6e6e6e"/><path d="m256 420h256v30h-256zm0 0" fill="#5a5a5a"/></svg>