<svg height="512pt" viewBox="-31 0 512 512" width="512pt" xmlns="http://www.w3.org/2000/svg"><path d="m390 192.398438c-2.101562-103.800782-87-192.398438-195-192.398438-5.097656 0-10.199219.300781-15 .597656-99.300781 7.800782-180 91.601563-180 195.402344 0 50.699219 20.097656 102.597656 60 140.699219v175.300781h210v-61h75c24.902344 0 45-20.101562 45-45v-75h60zm0 0" fill="#fed2a4"/><path d="m450 331h-60v75c0 24.898438-20.097656 45-45 45h-75v61h-90v-511.402344c4.800781-.296875 9.902344-.597656 15-.597656 108 0 192.898438 88.597656 195 192.398438zm0 0" fill="#ffbd86"/><path d="m450 391h-172.5l-77.402344-103.199219 23.996094-17.988281 68.40625 91.1875h157.5zm0 0" fill="#444"/><path d="m150 0h60v151h-60zm0 0" fill="#5a5a5a"/><path d="m180 0h30v151h-30zm0 0" fill="#444"/><path d="m180 121c-49.5 0-90 40.5-90 90s40.5 90 90 90 90-40.5 90-90-40.5-90-90-90zm0 0" fill="#5a5a5a"/><path d="m270 211c0 49.5-40.5 90-90 90v-180c49.5 0 90 40.5 90 90zm0 0" fill="#444"/><path d="m180 181c-16.5 0-30 13.5-30 30s13.5 30 30 30 30-13.5 30-30-13.5-30-30-30zm0 0" fill="#73bcff"/><path d="m210 211c0 16.5-13.5 30-30 30v-60c16.5 0 30 13.5 30 30zm0 0" fill="#3aaaff"/></svg>