<svg height="512pt" viewBox="0 -15 512 512" width="512pt" xmlns="http://www.w3.org/2000/svg"><path d="m512 0v300l-30 30h-452l-30-30v-300zm0 0" fill="#5a5a5a"/><path d="m512 0v300l-30 30h-226v-330zm0 0" fill="#444"/><path d="m328.597656 457.597656h-145.195312l27.597656-42.097656v-40.5h90v40.5zm0 0" fill="#5a5a5a"/><path d="m301 415.5 27.597656 42.097656h-72.597656v-82.597656h45zm0 0" fill="#444"/><path d="m30 30h452v300h-452zm0 0" fill="#73bcff"/><path d="m256 30h226v300h-226zm0 0" fill="#3aaaff"/><path d="m151 451h210v30h-210zm0 0" fill="#6e6e6e"/><path d="m256 451h105v30h-105zm0 0" fill="#5a5a5a"/><path d="m0 300h512v90h-512zm0 0" fill="#6e6e6e"/><path d="m256 300h256v90h-256zm0 0" fill="#5a5a5a"/><g fill="#c6e2e7"><path d="m301 90h121v30h-121zm0 0"/><path d="m301 150h121v30h-121zm0 0"/><path d="m301 210h121v30h-121zm0 0"/></g><path d="m241 90v150h-150v-150h60l15 15 15-15zm0 0" fill="#fed2a4"/><path d="m241 90v150h-75v-135l15-15zm0 0" fill="#ffbd86"/><path d="m151 90h30v30h-30zm0 0" fill="#ff9f00"/><path d="m166 90h15v30h-15zm0 0" fill="#ff7816"/></svg>