<svg height="512pt" viewBox="0 -46 512 512" width="512pt" xmlns="http://www.w3.org/2000/svg"><path d="m451 30v150h-120l-15-60 15-90h45l15 15 15-15zm0 0" fill="#fed2a4"/><path d="m451 30v150h-60v-135l15-15zm0 0" fill="#ffbd86"/><path d="m376 30h30v30h-30zm0 0" fill="#ff9f00"/><path d="m391 30h15v30h-15zm0 0" fill="#ff7816"/><path d="m512 150v180l-21.597656 15h-140.503906l-18.898438-15-15-75 15-105h45l30 30h30l30-30zm0 0" fill="#ff9f00"/><path d="m512 150v180l-21.597656 15h-69.402344v-165h15l30-30zm0 0" fill="#ff7816"/><path d="m376 150h90v60h-90zm0 0" fill="#ff7816"/><path d="m421 150h45v60h-45zm0 0" fill="#ff4b00"/><path d="m331 330v-330h-30v330h-46v30h257v-30zm0 0" fill="#444"/><path d="m90 120h30v90h-30zm0 0" fill="#5a5a5a"/><path d="m240 98.699219v156.300781h-30v-143.699219l-51.300781-51.300781h-98.699219v135h-30v-165h141.300781zm0 0" fill="#ff7816"/><path d="m240 98.699219v156.300781h-30v-143.699219l-51.300781-51.300781h-23.699219v-30h36.300781zm0 0" fill="#ff4b00"/><path d="m270 240v135l-30 15h-210l-30-30v-180h114.300781l30 60zm0 0" fill="#ff9f00"/><path d="m270 240v135l-30 15h-105v-168.601562l9.300781 18.601562zm0 0" fill="#ff7816"/><path d="m225 330c-24.902344 0-45 20.097656-45 45s20.097656 45 45 45 45-20.097656 45-45-20.097656-45-45-45zm0 0" fill="#5a5a5a"/><path d="m270 375c0 24.902344-20.097656 45-45 45v-90c24.902344 0 45 20.097656 45 45zm0 0" fill="#444"/><path d="m225 360c-8.402344 0-15 6.597656-15 15s6.597656 15 15 15 15-6.597656 15-15-6.597656-15-15-15zm0 0" fill="#deecf1"/><path d="m240 375c0 8.402344-6.597656 15-15 15v-30c8.402344 0 15 6.597656 15 15zm0 0" fill="#c6e2e7"/><path d="m60 300c-33 0-60 27-60 60s27 60 60 60 60-27 60-60-27-60-60-60zm0 0" fill="#5a5a5a"/><path d="m120 360c0 33-27 60-60 60v-120c33 0 60 27 60 60zm0 0" fill="#444"/><path d="m60 330c-16.5 0-30 13.5-30 30s13.5 30 30 30 30-13.5 30-30-13.5-30-30-30zm0 0" fill="#deecf1"/><path d="m90 360c0 16.5-13.5 30-30 30v-60c16.5 0 30 13.5 30 30zm0 0" fill="#c6e2e7"/></svg>