<svg height="512pt" viewBox="0 -61 512 512" width="512pt" xmlns="http://www.w3.org/2000/svg"><path d="m0 0h120l-37.5 67.5-82.5 52.5zm0 0" fill="#fed2a4"/><path d="m0 120 120-120 30 64.375-30 55.625-38.75 30zm0 0" fill="#ffbd86"/><path d="m120 0h120l-37.5 67.5-82.5 52.5zm0 0" fill="#fed2a4"/><path d="m120 120 120-120v120l-52.5 30zm0 0" fill="#ffbd86"/><path d="m0 120h120l-37.5 67.5-82.5 52.5zm0 0" fill="#fed2a4"/><path d="m0 240 120-120 30 64.375-30 55.625-38.75 30zm0 0" fill="#ffbd86"/><path d="m120 120h120l-37.5 67.5-82.5 52.5zm0 0" fill="#fed2a4"/><path d="m120 240 120-120v120l-48.75 30zm0 0" fill="#ffbd86"/><path d="m332 290.699219-30 39.300781h-302v-90h302zm0 0" fill="#deecf1"/><path d="m332 290.699219-30 39.300781h-182v-90h182zm0 0" fill="#c6e2e7"/><path d="m120 270c-33 0-60 27-60 60s27 60 60 60 60-27 60-60-27-60-60-60zm0 0" fill="#5a5a5a"/><path d="m180 330c0 33-27 60-60 60v-120c33 0 60 27 60 60zm0 0" fill="#444"/><path d="m120 300c-16.5 0-30 13.5-30 30s13.5 30 30 30 30-13.5 30-30-13.5-30-30-30zm0 0" fill="#deecf1"/><path d="m150 330c0 16.5-13.5 30-30 30v-60c16.5 0 30 13.5 30 30zm0 0" fill="#c6e2e7"/><path d="m476.273438 60h-84.273438l-30 60 30 79.394531 21.210938 10.605469 98.789062-30v-48.546875zm0 0" fill="#c6e2e7"/><path d="m302 60v90l51.210938 30 38.789062 19.394531v-139.394531zm0 0" fill="#5a5a5a"/><path d="m413.210938 180-30-30h-81.210938v180h210v-60l-15-15 15-15v-60zm0 0" fill="#ff7816"/><path d="m482 240h30v30h-30zm0 0" fill="#fed2a4"/><path d="m392 270c-33 0-60 27-60 60s27 60 60 60 60-27 60-60-27-60-60-60zm0 0" fill="#5a5a5a"/><path d="m452 330c0 33-27 60-60 60v-120c33 0 60 27 60 60zm0 0" fill="#444"/><path d="m392 300c-16.5 0-30 13.5-30 30s13.5 30 30 30 30-13.5 30-30-13.5-30-30-30zm0 0" fill="#deecf1"/><path d="m422 330c0 16.5-13.5 30-30 30v-60c16.5 0 30 13.5 30 30zm0 0" fill="#c6e2e7"/></svg>