<svg height="512pt" viewBox="0 0 512.001 512" width="512pt" xmlns="http://www.w3.org/2000/svg"><path d="m450.992188 255.867188c0 107.414062-87.609376 195.023437-195.023438 195.023437-5.097656 0-9.902344-.300781-15-.898437l-146.71875-85.210938c-12.898438-19.203125-22.199219-40.804688-27.902344-63.90625l101.414063-218.726562c26.703125-13.5 56.40625-21.300782 88.207031-21.300782 34.207031 0 66.609375 9 94.511719 24.601563l28.503906 68.707031 71.707031 95.710938c0 2.101562.300782 3.902343.300782 6zm0 0" fill="#73bcff"/><path d="m450.992188 255.867188c0 107.414062-87.609376 195.023437-195.023438 195.023437v-390.042969c34.207031 0 66.609375 9 94.511719 24.601563l28.503906 68.707031 71.707031 95.710938c0 2.101562.300782 3.902343.300782 6zm0 0" fill="#0095ff"/><path d="m273.972656 511.296875c-5.699218.300781-11.402344.601563-17.402344.601563-.296874 0-.296874 0-.601562 0-4.5 0-9.300781 0-13.5-.300782l1.5-30c3.902344.296875 8.402344.597656 12.003906.296875h.601563c5.097656 0 10.199219-.296875 15.597656-.597656zm0 0" fill="#73bcff"/><path d="m210.6875 507.882812c-10.417969-1.859374-20.832031-4.410156-30.957031-7.574218l8.96875-29.625c8.863281 2.769531 17.960937 6.011718 27.261719 7.667968zm0 0" fill="#73bcff"/><path d="m305.707031 507.050781-5.800781-29.445312c9.257812-1.816407 18.3125-5.222657 27.148438-8.164063l9.464843 29.480469c-10.066406 3.335937-20.4375 6.078125-30.8125 8.128906zm0 0" fill="#3aaaff"/><path d="m149.976562 488.898438c-9.625-4.410157-19.089843-9.464844-28.097656-15.0625l15.820313-26.488282c7.941406 4.921875 16.203125 9.359375 24.757812 13.269532zm0 0" fill="#73bcff"/><path d="m366.066406 486.980469-12.980468-28.046875c8.480468-4.070313 16.671874-8.644532 24.523437-13.695313l16.230469 25.226563c-8.902344 5.726562-18.175782 11.914062-27.773438 16.515625zm0 0" fill="#3aaaff"/><path d="m95.890625 454.421875c-8.277344-6.679687-16.117187-13.859375-23.5-21.507813l21.59375-20.832031c6.503906 6.738281 13.433594 13.097657 20.746094 18.988281zm0 0" fill="#73bcff"/><path d="m419.511719 451.582031-19.28125-23.003906c7.207031-6.035156 14.035156-12.496094 20.421875-19.351563l21.945312 20.453126c-7.234375 7.761718-14.941406 15.074218-23.085937 21.902343zm0 0" fill="#3aaaff"/><path d="m51.777344 408.683594c-6.34375-8.480469-12.175782-17.359375-17.464844-26.589844l26.050781-14.914062c4.671875 8.175781 9.828125 16.027343 15.441407 23.515624zm0 0" fill="#73bcff"/><path d="m462.800781 405.09375-24.289062-17.609375c5.464843-7.558594 10.476562-15.496094 15-23.746094l27.3125 14.414063c-5.113281 9.332031-11.839844 18.402344-18.023438 26.941406zm0 0" fill="#3aaaff"/><path d="m19.292969 353.484375c-4.070313-9.800781-7.542969-19.953125-10.328125-30.152344l29.949218-7.910156c2.476563 9.097656 5.523438 17.960937 9.097657 26.574219zm0 0" fill="#73bcff"/><path d="m494.347656 349.265625-28.925781-10.988281c3.398437-8.660156 7.300781-17.597656 9.644531-26.75l29.066406 7.410156c-2.636718 10.386719-5.917968 20.496094-9.785156 30.328125zm0 0" fill="#3aaaff"/><path d="m2.503906 292.144531c-1.480468-10.386719-2.328125-20.964843-2.503906-31.734375l31.003906-.46875c.144532 9.480469.90625 18.824219 2.210938 27.980469zm0 0" fill="#73bcff"/><path d="m510.039062 287.628906-29.769531-3.691406c1.140625-9.183594 1.726563-18.558594 1.726563-28.066406l-.128906-8.015625 29.972656-1.082031c.117187 3.015624.160156 6.0625.160156 9.097656 0 10.765625-.671875 21.371094-1.960938 31.757812zm0 0" fill="#3aaaff"/><path d="m32.203125 231.800781-30.824219-3.164062c1.125-10.683594 2.929688-21.171875 5.332032-31.410157l30.210937 6.882813c-2.140625 9.039063-3.707031 18.269531-4.71875 27.691406zm0 0" fill="#73bcff"/><path d="m479.125 219.875c-1.507812-9.347656-3.589844-18.503906-6.195312-27.410156l28.800781-8.441406c2.960937 10.109374 5.304687 20.46875 7.019531 31.042968zm0 0" fill="#3aaaff"/><path d="m45.066406 177.199219-29.097656-10.492188c3.707031-9.945312 9.085938-19.746093 13.996094-29.109375l26.574218 13.949219c-4.335937 8.261719-8.175781 16.832031-11.472656 25.652344zm0 0" fill="#73bcff"/><path d="m462.375 166.050781c-3.765625-8.613281-8.058594-16.964843-12.816406-24.992187l26.785156-15.324219c5.402344 9.082031 10.253906 18.546875 14.515625 28.304687zm0 0" fill="#3aaaff"/><path d="m71.128906 127.503906-24.640625-17.140625c6.078125-8.730469 12.6875-17.066406 19.792969-24.964843l22.296875 20.070312c-6.253906 6.960938-12.101563 14.328125-17.449219 22.035156zm0 0" fill="#73bcff"/><path d="m433.734375 117.863281c-5.769531-7.425781-11.980469-14.457031-18.605469-21.078125l21.214844-21.214844c7.5 7.5 14.53125 15.46875 21.066406 23.863282zm0 0" fill="#3aaaff"/><path d="m108.621094 85.765625-19.632813-22.679687c8.015625-6.941407 16.453125-13.402344 25.300781-19.308594l16.671876 24.9375c-7.792969 5.230468-15.265626 10.929687-22.339844 17.050781zm0 0" fill="#73bcff"/><path d="m394.078125 78.191406c-7.398437-5.742187-15.164063-11.058594-23.25-15.863281l15.351563-25.785156c9.144531 5.449219 17.902343 11.441406 26.300781 17.945312zm0 0" fill="#3aaaff"/><path d="m155.25 54.589844-13.449219-26.839844c9.464844-4.730469 19.25-9.890625 29.332031-13.449219l9.960938 29.304688c-8.878906 3.117187-17.519531 6.808593-25.84375 10.984375zm0 0" fill="#73bcff"/><path d="m345.820312 49.492188c-8.542968-3.71875-17.347656-6.929688-26.398437-9.582032l8.40625-29.800781c10.125 2.960937 20.21875 6.621094 29.976563 10.871094zm0 0" fill="#3aaaff"/><path d="m208.136719 35.941406-6.355469-30.328125c10.269531-2.226562 20.789062-3.824219 31.46875-4.777343l2.664062 29.886718c-9.449218.835938-18.707031 3.253906-27.777343 5.21875zm0 0" fill="#73bcff"/><path d="m291.980469 33.699219c-9.125-1.464844-18.472657-3.386719-27.953125-3.722657l1.054687-29.976562c10.738281.367188 21.316407 1.40625 31.675781 3.078125zm0 0" fill="#3aaaff"/><path d="m272.171875 481.296875 1.800781 30c-5.699218.300781-11.402344.601563-17.402344.601563-.296874 0-.296874 0-.601562 0v-30.003907h.601562c5.101563 0 10.203126-.300781 15.601563-.597656zm0 0" fill="#3aaaff"/><g fill="#deecf1"><path d="m145.230469 240.867188h35.730469v-105.011719l-13.117188-53.730469c-63.328125 32.257812-106.894531 97.941406-106.894531 173.742188 0 15.511718 2.011719 30.53125 5.453125 45.007812h48.824218zm0 0"/><path d="m165.960938 329.105469-71.605469 35.800781c32.445312 47.933594 85.679687 80.550781 146.613281 85.226562v-83.523437zm0 0"/><path d="m367.285156 225.867188 25.800782 25.800781-36.304688 109.214843h-44.402344l-56.40625-28.203124-20.101562-10.203126 30.003906-60.007812-9.902344-4.800781-45.007812-22.5v-54.308594h68.707031l30.003906-30.003906h24.605469l16.199219-65.40625c58.207031 32.402343 98.113281 93.910156 100.210937 164.417969l-71.707031-35.703126zm0 0"/></g><path d="m367.285156 225.867188 25.800782 25.800781-36.304688 109.214843h-44.402344l-56.40625-28.203124v-50.40625l9.902344-19.804688-9.902344-4.800781v-76.808594h23.699219l30.003906-30.003906h24.605469l16.199219-65.40625c58.207031 32.402343 98.113281 93.910156 100.210937 164.417969l-71.707031-35.703126zm0 0" fill="#a8d3d8"/></svg>